<svg width="130" height="126" viewBox="0 0 130 126" fill="none" xmlns="http://www.w3.org/2000/svg">
<path d="M24.0347 29.7414L16.7904 23.5496L14.7106 25.8601L13.1566 24.5398L19.0805 17.9609L20.6345 19.2813L18.5547 21.5918L25.799 27.7837L24.0347 29.7414Z" fill="white"/>
<path d="M36.2215 17.3349C35.9878 18.8601 35.1465 20.1463 33.686 21.1821C32.2254 22.2179 30.7181 22.6162 29.1758 22.3658C27.6335 22.1154 26.3482 21.3073 25.32 19.9414L25.2382 19.839C24.21 18.4731 23.8361 17.0276 24.0931 15.5024C24.3502 13.9772 25.1798 12.7024 26.5936 11.7008C28.0191 10.6878 29.5147 10.2894 31.057 10.4943C32.611 10.7105 33.8963 11.4959 34.9245 12.8731L35.0063 12.9756C36.0462 14.3528 36.4552 15.8097 36.2215 17.3349ZM32.4825 19.4862C33.2887 18.917 33.7093 18.1886 33.7678 17.3008C33.8145 16.413 33.499 15.5138 32.798 14.5805L32.7162 14.4894C32.0385 13.5788 31.2556 13.0211 30.3793 12.8048C29.503 12.5886 28.65 12.7707 27.8321 13.3512C27.0142 13.9317 26.5702 14.6601 26.5118 15.5366C26.4534 16.413 26.7688 17.3122 27.4699 18.2455L27.5517 18.3479C28.2411 19.2699 29.0473 19.839 29.947 20.0325C30.8584 20.226 31.6996 20.0439 32.4825 19.4862Z" fill="white"/>
<path d="M40.79 16.4927L36.4318 5.91867L39.9838 4.53005C41.8416 3.8016 43.4424 3.71054 44.7978 4.2455C46.1414 4.78046 47.1463 5.86176 47.8123 7.47802L47.859 7.59184C48.5251 9.21948 48.5718 10.6992 47.9993 12.0195C47.4267 13.3398 46.1999 14.3756 44.3304 15.104L40.79 16.4927ZM42.4843 13.6585L43.4891 13.2715C45.6273 12.4292 46.2466 10.8813 45.3119 8.62761L45.2651 8.51379C44.8094 7.39834 44.2018 6.66989 43.454 6.31704C42.7063 5.9642 41.7715 6.00973 40.6381 6.44225L39.6683 6.81786L42.4843 13.6585Z" fill="white"/>
<path d="M62.0205 9.50404C61.0741 10.7333 59.6953 11.4731 57.9076 11.7008C56.1082 11.9284 54.6009 11.5756 53.3624 10.6422C52.1238 9.70891 51.3994 8.39997 51.1657 6.7268L51.1424 6.6016C50.9087 4.92843 51.2826 3.4829 52.2641 2.25363C53.2455 1.02436 54.5892 0.307288 56.3185 0.0796452C58.0712 -0.147997 59.5785 0.193466 60.8287 1.10404C62.0906 2.0146 62.8267 3.31217 63.0604 4.99672L63.0954 5.11054C63.3291 6.80647 62.9669 8.26339 62.0205 9.50404ZM57.6739 9.652C58.6554 9.5268 59.3915 9.0829 59.8706 8.33168C60.3496 7.58046 60.5132 6.63574 60.3613 5.49753L60.3496 5.37233C60.1977 4.25688 59.7888 3.40322 59.1228 2.79997C58.4568 2.19672 57.6272 1.96908 56.6223 2.09428C55.6175 2.21948 54.8697 2.66339 54.3906 3.40322C53.9116 4.14306 53.748 5.08778 53.8999 6.22599L53.9116 6.35119C54.0634 7.4894 54.4958 8.35444 55.1851 8.94631C55.8862 9.53818 56.7158 9.77721 57.6739 9.652Z" fill="white"/>
<path d="M75.1888 12.1902C73.6698 11.9057 72.5832 11.3707 71.9288 10.574C71.2745 9.77721 71.0174 8.79834 71.1693 7.62599L73.6581 8.09265C73.6114 8.67314 73.7165 9.16257 73.9853 9.54956C74.2423 9.93656 74.7681 10.1983 75.551 10.3463C76.1235 10.4488 76.6026 10.4032 77.0115 10.187C77.4088 9.9707 77.6542 9.652 77.7476 9.2081C77.8411 8.7642 77.7476 8.41135 77.4906 8.14956C77.2335 7.89916 76.6844 7.62599 75.8665 7.34143C74.4059 6.87477 73.4011 6.32843 72.8753 5.70241C72.3378 5.07639 72.1859 4.23412 72.3962 3.1642C72.5831 2.19672 73.1323 1.46826 74.0203 0.990215C74.9083 0.512166 75.9833 0.386963 77.2335 0.614605C78.5305 0.853629 79.4886 1.33168 80.1079 2.02599C80.7271 2.73168 80.9842 3.64225 80.879 4.76908L78.4837 4.32517C78.5188 3.30078 77.9813 2.68615 76.8713 2.48127C76.3105 2.37883 75.8665 2.41298 75.5276 2.58371C75.1888 2.75444 74.9784 3.039 74.9083 3.42599C74.8265 3.84713 74.9083 4.17721 75.1537 4.439C75.3991 4.70078 75.9366 4.96257 76.7661 5.24713C78.2033 5.71379 79.2082 6.24875 79.7807 6.852C80.3532 7.46664 80.5285 8.3203 80.3065 9.42436C80.1079 10.4488 79.5353 11.2227 78.6006 11.7463C77.6425 12.2927 76.5208 12.4406 75.1888 12.1902Z" fill="white"/>
<path d="M80.9141 13.1235L89.058 4.13168L92.2245 5.46338L91.1028 17.3918L88.5673 16.3333L88.8594 13.6927L84.9685 12.065L83.2042 14.0796L80.9141 13.1235ZM89.6423 6.65851L86.2188 10.5853L89.058 11.7691L89.6423 6.65851Z" fill="white"/>
<path d="M93.0658 18.5756L100.1 9.46989L102.553 11.2683L101.479 19.8731L106.106 13.8748L107.987 15.252L100.953 24.3577L98.8379 22.8097L99.9479 13.4764L94.947 19.9528L93.0658 18.5756Z" fill="white"/>
<path d="M104.715 28.3414L112.053 22.252L110.008 19.9073L111.574 18.6097L117.393 25.2683L115.827 26.5658L113.782 24.2211L106.444 30.3105L104.715 28.3414Z" fill="white"/>
<path d="M115.535 41.852C114.016 41.4081 112.836 40.4065 111.994 38.8471C111.153 37.2878 110.966 35.7853 111.445 34.3284C111.924 32.8715 112.929 31.7561 114.46 30.9707L114.577 30.9138C116.107 30.1284 117.638 29.9691 119.157 30.4357C120.676 30.9024 121.844 31.8927 122.651 33.3951C123.48 34.9203 123.667 36.4114 123.223 37.8683C122.779 39.3252 121.786 40.4634 120.244 41.2488L120.127 41.3057C118.584 42.1138 117.054 42.2959 115.535 41.852ZM113.887 37.9366C114.355 38.7902 115.032 39.3138 115.92 39.4845C116.808 39.6666 117.778 39.4845 118.818 38.9496L118.935 38.8927C119.963 38.3691 120.641 37.6975 120.991 36.878C121.342 36.0585 121.272 35.2162 120.804 34.3398C120.325 33.4634 119.648 32.9398 118.771 32.7577C117.895 32.5756 116.925 32.7463 115.885 33.2813L115.768 33.3382C114.729 33.8731 114.039 34.5675 113.712 35.4097C113.373 36.2634 113.432 37.1057 113.887 37.9366Z" fill="white"/>
<path d="M117.042 50.8211L128.61 49.1593L129.17 52.8471C129.463 54.7821 129.182 56.3187 128.329 57.4683C127.476 58.6179 126.168 59.3122 124.403 59.574L124.275 59.5967C122.499 59.8585 121.015 59.5512 119.823 58.6862C118.631 57.8211 117.895 56.4325 117.603 54.4975L117.042 50.8211ZM119.461 53.0862L119.613 54.1219C119.951 56.3528 121.354 57.2862 123.831 56.9333L123.959 56.9105C125.174 56.7398 126.051 56.3301 126.576 55.704C127.102 55.078 127.278 54.1788 127.102 53.0065L126.95 51.9935L119.461 53.0862Z" fill="white"/>
<path d="M118.304 63.1935L130 63.5235L129.918 66.1187L118.222 65.7886L118.304 63.1935Z" fill="white"/>
<path d="M118.316 68.2699L128.983 74.2455L128.282 77.5349L116.061 78.8439L116.621 76.2032L119.332 75.9528L120.197 71.9122L117.813 70.6374L118.316 68.2699ZM126.553 75.3154L121.914 72.8341L121.283 75.7821L126.553 75.3154Z" fill="white"/>
<path d="M114.88 87.9268C115.161 87.3918 115.593 87.0276 116.177 86.8455C116.762 86.6634 117.322 86.7089 117.86 86.9821C118.397 87.2553 118.771 87.6764 118.958 88.2341C119.145 88.8032 119.098 89.3496 118.806 89.8845C118.514 90.4309 118.082 90.7951 117.521 90.9658C116.949 91.1366 116.388 91.091 115.839 90.8065C115.289 90.5333 114.916 90.1122 114.729 89.5658C114.542 89.0195 114.588 88.4731 114.88 87.9268Z" fill="white"/>
<path d="M105.778 96.4406L112.988 102.667L115.079 100.367L116.621 101.699L110.662 108.244L109.12 106.912L111.212 104.613L104.002 98.387L105.778 96.4406Z" fill="white"/>
<path d="M93.5332 108.767C93.7669 107.242 94.6198 105.967 96.092 104.932C97.5643 103.896 99.0599 103.509 100.614 103.771C102.156 104.032 103.441 104.841 104.446 106.206L104.528 106.309C105.545 107.675 105.919 109.132 105.65 110.657C105.381 112.182 104.54 113.446 103.126 114.447C101.689 115.46 100.205 115.847 98.6509 115.631C97.0969 115.415 95.8116 114.606 94.7951 113.229L94.7133 113.127C93.6851 111.75 93.2878 110.293 93.5332 108.767ZM97.2839 106.628C96.4776 107.197 96.0453 107.914 95.9986 108.802C95.9402 109.689 96.2556 110.6 96.945 111.522L97.0268 111.624C97.7045 112.535 98.4757 113.104 99.3637 113.32C100.24 113.537 101.093 113.366 101.911 112.785C102.729 112.205 103.173 111.476 103.243 110.6C103.301 109.724 102.997 108.824 102.308 107.891L102.226 107.789C101.537 106.855 100.742 106.298 99.8427 106.093C98.908 105.899 98.0667 106.081 97.2839 106.628Z" fill="white"/>
<path d="M88.9529 109.598L93.2528 120.195L89.689 121.572C87.8195 122.289 86.2188 122.38 84.8751 121.834C83.5314 121.288 82.5382 120.206 81.8722 118.59L81.8255 118.476C81.1595 116.849 81.1244 115.369 81.7203 114.049C82.3045 112.728 83.5314 111.704 85.4009 110.987L88.9529 109.598ZM87.247 112.41L86.2422 112.797C84.0922 113.628 83.473 115.176 84.396 117.429L84.4428 117.543C84.8985 118.659 85.4944 119.398 86.2422 119.751C86.9899 120.104 87.9247 120.07 89.0581 119.637L90.0279 119.262L87.247 112.41Z" fill="white"/>
<path d="M67.6991 116.473C68.6572 115.244 70.0242 114.515 71.8236 114.299C73.623 114.072 75.1303 114.436 76.3572 115.38C77.584 116.325 78.3084 117.634 78.5304 119.307L78.5421 119.432C78.7641 121.106 78.3785 122.551 77.3971 123.78C76.4156 124.998 75.0602 125.715 73.3309 125.932C71.5783 126.148 70.071 125.806 68.8208 124.885C67.5705 123.974 66.8344 122.665 66.6124 120.98L66.6007 120.867C66.3787 119.171 66.7409 117.702 67.6991 116.473ZM72.0456 116.348C71.0641 116.473 70.328 116.906 69.849 117.657C69.3699 118.408 69.1947 119.353 69.3465 120.491L69.3582 120.616C69.4984 121.732 69.9074 122.597 70.5734 123.2C71.2394 123.803 72.069 124.042 73.0739 123.917C74.0787 123.792 74.8265 123.359 75.3173 122.619C75.808 121.88 75.9716 120.935 75.8197 119.797L75.808 119.672C75.6561 118.533 75.2355 117.668 74.5461 117.065C73.8333 116.462 73.0038 116.223 72.0456 116.348Z" fill="white"/>
<path d="M54.5425 113.719C56.0615 114.015 57.1481 114.55 57.8024 115.346C58.4567 116.143 58.7021 117.122 58.5385 118.294L56.0498 117.816C56.0965 117.236 56.003 116.746 55.7343 116.359C55.4772 115.972 54.9514 115.711 54.1686 115.551C53.5961 115.437 53.117 115.494 52.7081 115.699C52.2991 115.904 52.0537 116.234 51.9719 116.667C51.8785 117.111 51.9603 117.463 52.229 117.725C52.486 117.976 53.0235 118.249 53.8531 118.545C55.3137 119.023 56.3068 119.569 56.8326 120.195C57.3584 120.821 57.522 121.663 57.3 122.733C57.1014 123.701 56.5639 124.429 55.6642 124.907C54.7762 125.385 53.7012 125.499 52.451 125.26C51.154 125.01 50.1959 124.532 49.5766 123.826C48.9574 123.12 48.7003 122.21 48.8172 121.083L51.2125 121.538C51.1774 122.563 51.7032 123.177 52.8249 123.393C53.3857 123.496 53.8297 123.462 54.1686 123.291C54.5074 123.12 54.7178 122.836 54.7996 122.449C54.8813 122.028 54.7996 121.698 54.5659 121.436C54.3205 121.174 53.783 120.901 52.9534 120.616C51.5162 120.15 50.5114 119.603 49.9505 118.989C49.3897 118.374 49.2144 117.52 49.4364 116.416C49.6468 115.392 50.2193 114.618 51.1423 114.094C52.0888 113.605 53.2222 113.468 54.5425 113.719Z" fill="white"/>
<path d="M48.8172 112.751L40.6265 121.698L37.46 120.354L38.6518 108.437L41.1873 109.519L40.8835 112.148L44.7627 113.798L46.5388 111.784L48.8172 112.751ZM40.0423 119.171L43.4891 115.255L40.6498 114.049L40.0423 119.171Z" fill="white"/>
<path d="M36.6888 107.242L29.6081 116.314L27.1661 114.504L28.2878 105.911L23.6257 111.886L21.7562 110.498L28.8369 101.426L30.9401 102.985L29.7834 112.319L34.8193 105.854L36.6888 107.242Z" fill="white"/>
<path d="M25.0863 97.4195L17.7252 103.463L19.7582 105.819L18.1808 107.117L12.3971 100.424L13.9745 99.1268L16.0076 101.483L23.3687 95.439L25.0863 97.4195Z" fill="white"/>
<path d="M14.3484 83.8406C15.8557 84.2845 17.0358 85.2975 17.8771 86.8569C18.7067 88.4162 18.8936 89.93 18.4029 91.3756C17.9121 92.8211 16.9073 93.9366 15.3649 94.7219L15.2481 94.7788C13.7058 95.5642 12.1868 95.7122 10.6678 95.2341C9.14886 94.7561 7.99211 93.7658 7.18589 92.252C6.36799 90.7268 6.18104 89.2357 6.63673 87.7675C7.08073 86.3105 8.08559 85.1837 9.62792 84.3983L9.74476 84.3414C11.2988 83.5675 12.8294 83.3967 14.3484 83.8406ZM15.9725 87.7675C15.5168 86.9138 14.8391 86.3902 13.9511 86.2081C13.0631 86.026 12.0933 86.1967 11.0534 86.7317L10.9366 86.7886C9.90834 87.3122 9.21897 87.9723 8.86844 88.7918C8.51791 89.6 8.57633 90.4536 9.0437 91.33C9.51107 92.2065 10.1888 92.7414 11.0651 92.9235C11.9414 93.117 12.9112 92.9349 13.9511 92.4114L14.068 92.3544C15.1079 91.8195 15.8089 91.1366 16.1361 90.2943C16.4749 89.452 16.4282 88.6097 15.9725 87.7675Z" fill="white"/>
<path d="M12.8995 74.8715L1.32032 76.4764L0.782836 72.7886C0.502412 70.8536 0.782836 69.317 1.64748 68.1675C2.50043 67.0292 3.82077 66.3349 5.5851 66.0845L5.71363 66.0618C7.48965 65.8114 8.97356 66.1187 10.1654 66.9951C11.3455 67.8601 12.0816 69.2601 12.362 71.1951L12.8995 74.8715ZM10.4808 72.5951L10.3289 71.5479C10.0018 69.317 8.59966 68.3723 6.13427 68.7138L6.00574 68.7479C4.79057 68.9187 3.91424 69.317 3.37676 69.9431C2.83928 70.5691 2.66402 71.4683 2.83928 72.6292L2.99118 73.6422L10.4808 72.5951Z" fill="white"/>
<path d="M11.6843 62.4764L0 62.0894L0.0934747 59.4943L11.7778 59.8813L11.6843 62.4764Z" fill="white"/>
<path d="M11.7194 57.4L1.07495 51.3675L1.7877 48.078L14.0212 46.8374L13.4487 49.4666L10.7379 49.7057L9.86158 53.7463L12.2335 55.0325L11.7194 57.4ZM3.51698 50.3089L8.14398 52.813L8.78662 49.865L3.51698 50.3089Z" fill="white"/>
<path d="M15.2481 37.7772C14.956 38.3122 14.5236 38.6764 13.9394 38.8471C13.3552 39.0292 12.7944 38.9723 12.2569 38.6992C11.7194 38.426 11.3572 38.0049 11.1702 37.4357C10.9833 36.8666 11.0417 36.3203 11.3221 35.7853C11.6142 35.239 12.0466 34.8748 12.6191 34.704C13.1916 34.5333 13.7525 34.5902 14.3016 34.8634C14.8508 35.1479 15.2247 35.5577 15.4 36.1154C15.5986 36.6845 15.5402 37.2309 15.2481 37.7772Z" fill="white"/>
</svg>
